{"title":"El Potro Alvarez Ft Oscarcito - Me Gusta (h264/mp4)","uid":7636922,"size":107279491,"categoryP":"video","categoryS":"music_videos","magnet":"?xt=urn:btih:673edc6051c97ddd5558d1c3927b979442c8e8fd&amp;dn=El+Potro+Alvarez+Ft+Oscarcito+-+Me+Gusta+%28h264%2Fmp4%29&amp;tr=udp%3A%2F%2Ftracker.openbittorrent.com%3A80&amp;tr=udp%3A%2F%2Fopen.demonii.com%3A1337&amp;tr=udp%3A%2F%2Ftracker.coppersurfer.tk%3A6969&amp;tr=udp%3A%2F%2Fexodus.desync.com%3A6969","seeders":1,"leechers":0,"uploader":"MusicVideos-HQ","files":1,"time":1347670459,"description":"General\n\nFormat                         : MPEG-4\nFormat profile                 : Base Media\nCodec ID                       : isom\nFile size                      : 102 MiB\nDuration                       : 5mn 58s\nOverall bit rate mode          : Variable\nOverall bit rate               : 2 392 Kbps\nEncoded date                   : UTC 2012-09-13 02:40:04\nTagged date                    : UTC 2012-09-13 02:40:04\n\nVideo\nID                             : 1\nFormat                         : AVC\nFormat/Info                    : Advanced Video Codec\nFormat profile                 : &lt;a class=&quot;__cf_email__&quot; href=&quot;/cdn-cgi/l/email-protection&quot; data-cfemail=&quot;4a02232d220a0679647a&quot;&gt;[email&amp;#160;protected]&lt;/a&gt;&lt;script cf-hash='f9e31' type=&quot;text/javascript&quot;&gt;\n/* &lt;![CDATA[ */!function(){try{var t=&quot;currentScript&quot;in document?document.currentScript:function(){for(var t=document.getElementsByTagName(&quot;script&quot;),e=t.length;e--;)if(t[e].getAttribute(&quot;cf-hash&quot;))return t[e]}();if(t&amp;&amp;t.previousSibling){var e,r,n,i,c=t.previousSibling,a=c.getAttribute(&quot;data-cfemail&quot;);if(a){for(e=&quot;&quot;,r=parseInt(a.substr(0,2),16),n=2;a.length-n;n+=2)i=parseInt(a.substr(n,2),16)^r,e+=String.fromCharCode(i);e=document.createTextNode(e),c.parentNode.replaceChild(e,c)}}}catch(u){}}();/* ]]&gt; */&lt;/script&gt;\nFormat settings, CABAC         : Yes\nFormat settings, ReFrames      : 2 frames\nCodec ID                       : avc1\nCodec ID/Info                  : Advanced Video Coding\nDuration                       : 5mn 58s\nBit rate                       : 2 217 Kbps\nMaximum bit rate               : 4 980 Kbps\nWidth                          : 720 pixels\nHeight                         : 480 pixels\nDisplay aspect ratio           : 16:9\nOriginal display aspect ratio  : 16:9\nFrame rate mode                : Constant\nFrame rate                     : 23.976 fps\nStandard                       : NTSC\nColor space                    : YUV\nChroma subsampling             : 4:2:0\nBit depth                      : 8 bits\nScan type                      : Progressive\nBits/(Pixel*Frame)             : 0.268\nStream size                    : 91.7 MiB (90%)\n\n\nAudio\nID                             : 2\nFormat                         : MPEG Audio\nFormat version                 : Version 1\nFormat profile                 : Layer 3\nMode                           : Joint stereo\nMode extension                 : MS Stereo\nCodec ID                       : 6B\nDuration                       : 5mn 58s\nBit rate mode                  : Variable\nBit rate                       : 241 Kbps\nMaximum bit rate               : 283 Kbps\nChannel(s)                     : 2 channels\nSampling rate                  : 44.1 KHz\nCompression mode               : Lossy\nDelay relative to video        : -833ms\nStream size                    : 10.3 MiB (10%)","torrent":{"xt":"urn:btih:673edc6051c97ddd5558d1c3927b979442c8e8fd","amp;dn":"El+Potro+Alvarez+Ft+Oscarcito+-+Me+Gusta+%28h264%2Fmp4%29","amp;tr":["udp%3A%2F%2Ftracker.openbittorrent.com%3A80","udp%3A%2F%2Fopen.demonii.com%3A1337","udp%3A%2F%2Ftracker.coppersurfer.tk%3A6969","udp%3A%2F%2Fexodus.desync.com%3A6969"],"infoHash":"673edc6051c97ddd5558d1c3927b979442c8e8fd","infoHashBuffer":{"type":"Buffer","data":[103,62,220,96,81,201,125,221,85,88,209,195,146,123,151,148,66,200,232,253]},"announce":[],"urlList":[]}}